<?xml version="1.0" encoding="UTF-8" standalone="no"?> <svg width="512" height="512" viewBox="0 0 512 512" fill="none" xmlns="http://www.w3.org/2000/svg">
<path d="M352.138 124.548L370.343 106.348C371.843 104.848 373.878 104.005 376 104.005C378.122 104.005 380.157 104.848 381.657 106.348C383.157 107.848 384 109.883 384 112.005C384 114.127 383.157 116.162 381.657 117.662L363.314 136L372 144.686L392 124.686V80.679C381.409 82.4858 371.729 87.7879 364.504 95.7393C357.279 103.691 352.925 113.833 352.138 124.548V124.548Z" fill="black"/>
<path d="M400 176C412.028 175.989 423.613 171.462 432.462 163.317C441.312 155.171 446.781 144 447.787 132.014C448.793 120.029 445.262 108.102 437.894 98.5957C430.526 89.089 419.858 82.6949 408 80.679V128C408 129.051 407.793 130.091 407.391 131.062C406.989 132.032 406.4 132.914 405.657 133.657L372.191 167.123C380.302 172.922 390.029 176.027 400 176V176Z" fill="black"/>
<path d="M168 336C168 336 245.414 336.278 248 336.805V296H216V312C216 314.122 215.157 316.157 213.657 317.657C212.157 319.157 210.122 320 208 320H168V336Z" fill="black"/>
<path d="M240 408C246.363 407.993 252.463 405.462 256.963 400.963C261.462 396.463 263.993 390.363 264 384V376C264 369.635 261.471 363.53 256.971 359.029C252.47 354.529 246.365 352 240 352C233.635 352 227.53 354.529 223.029 359.029C218.529 363.53 216 369.635 216 376V384C216.007 390.363 218.538 396.463 223.037 400.963C227.537 405.462 233.637 407.993 240 408V408Z" fill="black"/>
<path d="M284.049 181.493L300.681 199.166L356.234 151.548L343.177 138.491L284.049 181.493Z" fill="black"/>
<path d="M216 272V280H224V232H200V264H208C210.122 264 212.157 264.843 213.657 266.343C215.157 267.843 216 269.878 216 272Z" fill="black"/>
<path d="M72 376V384C72 390.365 74.5286 396.47 79.0294 400.971C83.5303 405.471 89.6348 408 96 408C102.365 408 108.47 405.471 112.971 400.971C117.471 396.47 120 390.365 120 384V376C120 369.635 117.471 363.53 112.971 359.029C108.47 354.529 102.365 352 96 352C89.6348 352 83.5303 354.529 79.0294 359.029C74.5286 363.53 72 369.635 72 376Z" fill="black"/>
<path d="M192 184H208V176C208 173.878 208.843 171.843 210.343 170.343C211.843 168.843 213.878 168 216 168H218C219.591 167.998 221.116 167.366 222.241 166.241C223.366 165.116 223.998 163.591 224 162V136H204.281L192 154.422V184Z" fill="black"/>
<path d="M112.063 288H32V304H117.175C114.151 299.182 112.393 293.679 112.063 288V288Z" fill="black"/>
<path d="M184 137.573L193.341 123.562C194.072 122.466 195.062 121.567 196.224 120.946C197.385 120.324 198.683 120 200 120H232C234.122 120 236.157 119.157 237.657 117.657C239.157 116.157 240 114.122 240 112C240 109.878 239.157 107.843 237.657 106.343C236.157 104.843 234.122 104 232 104H202.451C198.389 103.986 194.404 105.11 190.948 107.246C187.492 109.381 184.704 112.442 182.9 116.082V116.082C181.219 119.456 180.437 123.207 180.629 126.972C180.822 130.737 181.983 134.388 184 137.573Z" fill="black"/>
<path d="M145.454 431.041L116.2 418.5C110.077 422.099 103.103 423.997 96 423.997C88.8973 423.997 81.9235 422.099 75.8 418.5L46.546 431.041C42.2269 432.888 38.5457 435.964 35.9597 439.886C33.3736 443.807 31.9967 448.402 32 453.1V480H48V456C48 453.878 48.8429 451.843 50.3432 450.343C51.8434 448.843 53.8783 448 56 448C58.1217 448 60.1566 448.843 61.6569 450.343C63.1571 451.843 64 453.878 64 456V480H128V456C128 453.878 128.843 451.843 130.343 450.343C131.843 448.843 133.878 448 136 448C138.122 448 140.157 448.843 141.657 450.343C143.157 451.843 144 453.878 144 456V480H160V453.1C160.003 448.402 158.626 443.807 156.04 439.886C153.454 435.964 149.773 432.888 145.454 431.041V431.041Z" fill="black"/>
<path d="M128 226V236.458H160C162.122 236.458 164.157 237.301 165.657 238.801C167.157 240.301 168 242.336 168 244.458V264H184V224C184 221.878 184.843 219.843 186.343 218.343C187.843 216.843 189.878 216 192 216H272C273.122 216 274.23 216.236 275.254 216.694C276.278 217.152 277.194 217.82 277.942 218.656L288.519 209.59L271.005 190.98L260.705 198.47C259.338 199.464 257.691 200 256 200H154C147.107 200.008 140.498 202.749 135.624 207.624C130.749 212.498 128.008 219.107 128 226V226Z" fill="black"/>
<path d="M433.454 431.041L404.2 418.5C398.077 422.099 391.103 423.997 384 423.997C376.897 423.997 369.923 422.099 363.8 418.5L334.546 431.038C330.226 432.886 326.545 435.962 323.959 439.884C321.373 443.806 319.996 448.402 320 453.1V480H336V456C336 453.878 336.843 451.843 338.343 450.343C339.843 448.843 341.878 448 344 448C346.122 448 348.157 448.843 349.657 450.343C351.157 451.843 352 453.878 352 456V480H416V456C416 453.878 416.843 451.843 418.343 450.343C419.843 448.843 421.878 448 424 448C426.122 448 428.157 448.843 429.657 450.343C431.157 451.843 432 453.878 432 456V480H448V453.1C448.003 448.402 446.626 443.807 444.04 439.886C441.454 435.964 437.773 432.888 433.454 431.041V431.041Z" fill="black"/>
<path d="M264 232H240V280H264V232Z" fill="black"/>
<path d="M272 296H264V304H480V288H280C280 290.122 279.157 292.157 277.657 293.657C276.157 295.157 274.122 296 272 296Z" fill="black"/>
<path d="M32 48V272H112V226C112.012 214.865 116.441 204.189 124.315 196.315C132.189 188.441 142.865 184.012 154 184H176V154.422L170.954 146.853C167.26 141.297 165.097 134.865 164.683 128.206C164.268 121.548 165.617 114.897 168.593 108.926V108.926C171.718 102.623 176.546 97.3215 182.531 93.6229C188.515 89.9242 195.416 87.9763 202.451 88H232C237.66 88.0023 243.137 90.0047 247.463 93.6536C251.79 97.3025 254.688 102.363 255.645 107.941C256.602 113.52 255.557 119.257 252.694 124.139C249.831 129.021 245.335 132.735 240 134.624V162C239.994 166.787 238.43 171.443 235.543 175.262C232.656 179.081 228.604 181.856 224 183.168V184H253.4L336.154 123.816C337.101 109.356 342.928 95.6446 352.681 84.9262C362.434 74.2079 375.535 67.1168 389.843 64.813C404.15 62.5092 418.815 65.1291 431.44 72.2441C444.064 79.3591 453.901 90.548 459.339 103.98C464.778 117.412 465.497 132.293 461.378 146.187C457.26 160.081 448.549 172.166 436.669 180.465C424.789 188.764 410.445 192.785 395.982 191.872C381.519 190.958 367.795 185.163 357.054 175.435C356.182 175.087 355.378 174.587 354.68 173.958L280 237.965V272H480V48H32ZM368 208H376C378.122 208 380.157 208.843 381.657 210.343C383.157 211.843 384 213.878 384 216C384 218.122 383.157 220.157 381.657 221.657C380.157 223.157 378.122 224 376 224H368C365.878 224 363.843 223.157 362.343 221.657C360.843 220.157 360 218.122 360 216C360 213.878 360.843 211.843 362.343 210.343C363.843 208.843 365.878 208 368 208ZM432 256H368C365.878 256 363.843 255.157 362.343 253.657C360.843 252.157 360 250.122 360 248C360 245.878 360.843 243.843 362.343 242.343C363.843 240.843 365.878 240 368 240H432C434.122 240 436.157 240.843 437.657 242.343C439.157 243.843 440 245.878 440 248C440 250.122 439.157 252.157 437.657 253.657C436.157 255.157 434.122 256 432 256ZM448 224H408C405.878 224 403.843 223.157 402.343 221.657C400.843 220.157 400 218.122 400 216C400 213.878 400.843 211.843 402.343 210.343C403.843 208.843 405.878 208 408 208H448C450.122 208 452.157 208.843 453.657 210.343C455.157 211.843 456 213.878 456 216C456 218.122 455.157 220.157 453.657 221.657C452.157 223.157 450.122 224 448 224Z" fill="black"/>
<path d="M384 408C390.363 407.993 396.463 405.462 400.963 400.963C405.462 396.463 407.993 390.363 408 384V376C408 369.635 405.471 363.53 400.971 359.029C396.47 354.529 390.365 352 384 352C377.635 352 371.53 354.529 367.029 359.029C362.529 363.53 360 369.635 360 376V384C360.007 390.363 362.538 396.463 367.037 400.963C371.537 405.462 377.637 407.993 384 408V408Z" fill="black"/>
<path d="M128 286C128.006 290.772 129.904 295.347 133.278 298.722C136.653 302.096 141.228 303.994 146 304H200V280H160C157.878 280 155.843 279.157 154.343 277.657C152.843 276.157 152 274.122 152 272V252.458H128V286Z" fill="black"/>
<path d="M207.005 406.58C202.435 399.938 199.992 392.063 200 384V376C199.991 367.34 202.807 358.914 208.022 352H168V428.254C168 428.523 167.986 428.79 167.96 429.054L168 429.111C172.2 423.502 177.802 419.096 184.243 416.337L207.005 406.58Z" fill="black"/>
<path d="M289.454 431.041L260.2 418.5C254.077 422.099 247.103 423.997 240 423.997C232.897 423.997 225.923 422.099 219.8 418.5L190.546 431.038C186.226 432.886 182.545 435.962 179.959 439.884C177.373 443.806 175.996 448.402 176 453.1V480H192V456C192 453.878 192.843 451.843 194.343 450.343C195.843 448.843 197.878 448 200 448C202.122 448 204.157 448.843 205.657 450.343C207.157 451.843 208 453.878 208 456V480H272V456C272 453.878 272.843 451.843 274.343 450.343C275.843 448.843 277.878 448 280 448C282.122 448 284.157 448.843 285.657 450.343C287.157 451.843 288 453.878 288 456V480H304V453.1C304.003 448.402 302.626 443.807 300.04 439.886C297.454 435.964 293.773 432.888 289.454 431.041V431.041Z" fill="black"/>
</svg>
