<svg xmlns="http://www.w3.org/2000/svg" viewBox="85.3341 42.7756 853.3 942">
	<path d="M 809.003 291.328 l -297.003 171.819 l -297.003 -171.819 l 275.456 -157.397 c 4.779 -2.731 9.899 -4.48 15.147 -5.333 c 9.301 -1.451 18.987 0.128 27.904 5.291 Z M 491.776 979.669 c 6.016 3.243 12.928 5.077 20.224 5.077 c 7.381 0 14.336 -1.877 20.395 -5.163 c 15.189 -2.475 29.909 -7.68 43.392 -15.36 l 298.709 -170.709 c 26.368 -15.232 45.269 -38.315 55.424 -64.597 c 5.675 -14.592 8.619 -30.165 8.747 -46.251 v -341.333 c 0 -20.395 -4.821 -39.723 -13.397 -56.917 c -0.939 -3.029 -2.219 -5.973 -3.883 -8.832 c -1.963 -3.371 -4.267 -6.357 -6.912 -8.96 c -1.323 -1.835 -2.731 -3.669 -4.139 -5.419 c -9.813 -12.203 -21.845 -22.528 -35.456 -30.507 l -299.051 -170.88 c -26.027 -15.019 -55.467 -19.84 -83.328 -15.531 c -15.531 2.432 -30.507 7.637 -44.288 15.488 l -298.709 170.709 c -16.341 9.429 -29.824 21.888 -40.149 36.267 c -2.56 2.56 -4.864 5.547 -6.784 8.832 c -1.664 2.901 -2.987 5.888 -3.925 8.96 c -1.707 3.456 -3.243 6.955 -4.608 10.496 c -5.632 14.635 -8.576 30.208 -8.704 45.995 v 341.632 c 0.043 30.293 10.581 58.197 28.331 80.128 c 9.813 12.203 21.845 22.528 35.456 30.507 l 299.051 170.88 c 13.824 7.979 28.587 13.099 43.605 15.445 Z M 469.333 537.045 v 340.949 l -277.12 -158.336 c -4.736 -2.773 -8.832 -6.315 -12.16 -10.411 c -5.931 -7.381 -9.387 -16.512 -9.387 -26.581 v -318.379 Z M 554.667 877.995 v -340.949 l 298.667 -172.757 v 318.379 c -0.043 5.163 -1.067 10.496 -2.987 15.445 c -3.413 8.789 -9.6 16.384 -18.176 21.333 Z" fill="#000000"/>
</svg>